<svg xmlns="http://www.w3.org/2000/svg" viewBox="0 0 100 100">
  <defs>
    <linearGradient id="bgGrad" x1="0%" y1="0%" x2="100%" y2="100%">
      <stop offset="0%" style="stop-color:#1a2e26" />
      <stop offset="100%" style="stop-color:#3d614e" />
    </linearGradient>
  </defs>
  <!-- Circular Background -->
  <circle cx="50" cy="50" r="48" fill="url(#bgGrad)" />
  
  <!-- "Spa" Icon Stylized -->
  <g fill="#C5A059">
    <!-- Center leaf -->
    <path d="M50 25C50 25 42 40 42 55C42 65 50 72 50 72C50 72 58 65 58 55C58 40 50 25 50 25Z" />
    <!-- Left leaf -->
    <path d="M44 45C44 45 30 50 25 62C20 74 35 78 35 78C35 78 45 74 48 65C51 56 44 45 44 45Z" />
    <!-- Right leaf -->
    <path d="M56 45C56 45 70 50 75 62C80 74 65 78 65 78C65 78 55 74 52 65C49 56 56 45 56 45Z" />
  </g>
  
  <!-- Subtle inner outline for clarity -->
  <circle cx="50" cy="50" r="46" fill="none" stroke="#C5A059" stroke-width="1" stroke-opacity="0.2" />
</svg>
